<?xml version="1.0" encoding="utf-8"?>
<!-- Generator: Adobe Illustrator 16.0.0, SVG Export Plug-In . SVG Version: 6.00 Build 0)  -->
<!DOCTYPE svg PUBLIC "-//W3C//DTD SVG 1.1//EN" "http://www.w3.org/Graphics/SVG/1.1/DTD/svg11.dtd">
<svg version="1.1" id="Layer_1" xmlns="http://www.w3.org/2000/svg" xmlns:xlink="http://www.w3.org/1999/xlink" x="0px" y="0px"
	 width="100px" height="100px" viewBox="0 0 100 100" enable-background="new 0 0 100 100" xml:space="preserve">
<g>
	<path fill="none" stroke="#AD3F26" stroke-width="3" stroke-linecap="round" stroke-miterlimit="10" d="M7.176,16.717l3.69-0.34
		c11.854-2.055,36.522-6.332,41.267,5.783l13.969,35.664c0.392,0.998,0.219,2.129-0.449,2.966s-1.726,1.263-2.793,1.094
		C47.5,59.559,33.18,60.523,19.08,64.836"/>
</g>
<g>
	<path fill="none" stroke="#AD3F26" stroke-width="3" stroke-linecap="round" stroke-miterlimit="10" d="M65.311,61.15L49.834,74.5"
		/>
	<path fill="none" stroke="#AD3F26" stroke-width="3" stroke-linecap="round" stroke-miterlimit="10" d="M53.75,25.892
		c12.285-1.106,26.537-1.417,29.952,8.705l12.237,36.295c0.343,1.016,0.117,2.137-0.592,2.94s-1.791,1.168-2.843,0.959
		c-6.537-1.312-13.01-2.019-19.237-2.097c-8.369-0.113-15.468,0.388-23.684,2.472"/>
</g>
<g>
	<path fill="none" stroke="#AD3F26" stroke-width="3" stroke-linecap="round" stroke-miterlimit="10" d="M49.064,75.49l-6.689-14.74
		"/>
</g>
<g>
	<path fill="none" stroke="#AD3F26" stroke-width="3" stroke-linecap="round" stroke-miterlimit="10" d="M5.924,12.75L26,93.5"/>
</g>
<path fill="none" stroke="#AD3F26" stroke-width="3" stroke-linecap="round" stroke-miterlimit="10" d="M3.833,6.083"/>
<line fill="none" stroke="#AD3F26" stroke-width="3" stroke-linecap="round" stroke-miterlimit="10" x1="4.333" y1="7.5" x2="4.667" y2="8.5"/>
</svg>
