<?xml version="1.0" encoding="utf-8"?>
<!-- Generator: Adobe Illustrator 16.0.0, SVG Export Plug-In . SVG Version: 6.00 Build 0)  -->
<!DOCTYPE svg PUBLIC "-//W3C//DTD SVG 1.1//EN" "http://www.w3.org/Graphics/SVG/1.1/DTD/svg11.dtd">
<svg version="1.1" id="Layer_1" xmlns="http://www.w3.org/2000/svg" xmlns:xlink="http://www.w3.org/1999/xlink" x="0px" y="0px"
	 width="100px" height="100px" viewBox="0 0 100 100" enable-background="new 0 0 100 100" xml:space="preserve">
<g id="XMLID_2_">
	<g>
		<polygon fill="none" stroke="#AD3F26" stroke-width="3" stroke-linecap="round" stroke-miterlimit="10" points="91.176,97 
			7.534,97 11.681,89.669 85.982,89.669 		"/>
		<path fill="none" stroke="#AD3F26" stroke-width="3" stroke-linecap="round" stroke-miterlimit="10" d="M82.641,84.953
			l2.859,3.992h-9.904l-27.185-11.85l0,0L21.278,89.318h-9.375l2.502-4.471l7.188-0.352V68.621
			c5.331-4.379,20.277-6.237,27.529-6.237s0-0.021,0-0.021c6.521-0.081,20.058,1.712,25.911,5.688l0.131,16.598L82.641,84.953z"/>
		<path fill="none" stroke="#AD3F26" stroke-width="3" stroke-linecap="round" stroke-miterlimit="10" d="M20.189,67.55
			c0,0-0.743-2.642-0.156-4.155c1.127-0.98,2.711-1.91,4.729-2.77c7.112-3.027,12.271-4.375,24.192-4.375s0,0.027,0,0.027
			c4.596-0.088,14.087,0.925,21.483,3.506c3.078,1.074,5.41,2.287,6.922,3.605c0.478,1.408,0.311,4.598,0.107,5.235"/>
		<path fill="none" stroke="#AD3F26" stroke-width="3" stroke-linecap="round" stroke-miterlimit="10" d="M23.66,52.13
			c-0.335-2.669,0.672-3.976,0.672-3.976c1.304-1.265,3.16-2.424,5.525-3.464c6.251-2.735,18.178-3.716,18.264-3.716
			c0.012,0,0.023,0,0.028,0c0.063,0,0.178-0.007,0.178-0.007c3.788-0.092,11.696,0.965,17.952,3.677
			c2.76,1.196,4.832,2.557,6.152,4.043c0.517,1.422,0.268,2.896,0.151,3.437"/>
		<path fill="none" stroke="#AD3F26" stroke-width="3" stroke-linecap="round" stroke-miterlimit="10" d="M71.438,53.432v6.09
			c-0.146-0.056-0.287-0.104-0.433-0.154c-10.319-3.695-21.765-4.475-32.572-2.889c-2.421,0.355-4.819,0.857-7.19,1.459
			c-0.73,0.187-6.059,1.373-6.059,1.879v-6.789c4.533-4.714,16.666-6.835,22.591-6.717c0.092-0.007,0.185-0.012,0.299-0.012
			c0,0,0.407,0.018,0.407-0.005C54.586,46.197,67.266,48.482,71.438,53.432z"/>
		<path fill="none" stroke="#AD3F26" stroke-width="3" stroke-linecap="round" stroke-miterlimit="10" d="M52.189,24.173
			c6.106,2.379,10.924,9.553,13.322,19.793c-5.783-2.374-13.121-3.619-17.31-3.469c-0.017,0-0.034,0-0.052,0
			c-0.011,0-0.018,0-0.029,0c-3.625-0.13-11.15,0.881-17.481,3.518c2.126-10.519,7.165-17.97,13.657-20.083
			C46.887,23.081,49.617,23.169,52.189,24.173z"/>
		<path fill="none" stroke="#AD3F26" stroke-width="3" stroke-linecap="round" stroke-miterlimit="10" d="M51.76,14.157v8.009
			c-2.269-0.644-4.619-0.714-6.9-0.208V14.37c0.476-0.431,0.982-0.764,1.505-0.983c1.155-0.5,2.419-0.518,3.764-0.051
			C50.816,13.576,51.381,13.903,51.76,14.157z"/>
	</g>
</g>
<line fill="none" stroke="#AD3F26" stroke-width="3" stroke-linecap="round" stroke-miterlimit="10" x1="48.5" y1="67" x2="48.5" y2="72"/>
<line fill="none" stroke="#AD3F26" stroke-width="3" stroke-linecap="round" stroke-miterlimit="10" x1="41.5" y1="68" x2="41.5" y2="73"/>
<line fill="none" stroke="#AD3F26" stroke-width="3" stroke-linecap="round" stroke-miterlimit="10" x1="34.5" y1="70" x2="34.5" y2="75"/>
<line fill="none" stroke="#AD3F26" stroke-width="3" stroke-linecap="round" stroke-miterlimit="10" x1="27.5" y1="73" x2="27.5" y2="78"/>
<line fill="none" stroke="#AD3F26" stroke-width="3" stroke-linecap="round" stroke-miterlimit="10" x1="55.5" y1="68" x2="55.5" y2="73"/>
<line fill="none" stroke="#AD3F26" stroke-width="3" stroke-linecap="round" stroke-miterlimit="10" x1="62.5" y1="70" x2="62.5" y2="75"/>
<line fill="none" stroke="#AD3F26" stroke-width="3" stroke-linecap="round" stroke-miterlimit="10" x1="69.5" y1="73" x2="69.5" y2="78"/>
<line fill="none" stroke="#AD3F26" stroke-width="3" stroke-linecap="round" stroke-miterlimit="10" x1="48.5" y1="49" x2="48.5" y2="54"/>
<line fill="none" stroke="#AD3F26" stroke-width="3" stroke-linecap="round" stroke-miterlimit="10" x1="48.5" y1="5" x2="48.5" y2="12"/>
<line fill="none" stroke="#AD3F26" stroke-width="3" stroke-linecap="round" stroke-miterlimit="10" x1="42.5" y1="49" x2="42.5" y2="54"/>
<line fill="none" stroke="#AD3F26" stroke-width="3" stroke-linecap="round" stroke-miterlimit="10" x1="36.5" y1="50" x2="36.5" y2="55"/>
<line fill="none" stroke="#AD3F26" stroke-width="3" stroke-linecap="round" stroke-miterlimit="10" x1="30.5" y1="52" x2="30.5" y2="57"/>
<line fill="none" stroke="#AD3F26" stroke-width="3" stroke-linecap="round" stroke-miterlimit="10" x1="54.5" y1="49" x2="54.5" y2="54"/>
<line fill="none" stroke="#AD3F26" stroke-width="3" stroke-linecap="round" stroke-miterlimit="10" x1="60.5" y1="50" x2="60.5" y2="55"/>
<line fill="none" stroke="#AD3F26" stroke-width="3" stroke-linecap="round" stroke-miterlimit="10" x1="66.5" y1="52" x2="66.5" y2="57"/>
</svg>
