<?xml version="1.0" encoding="utf-8"?>
<!-- Generator: Adobe Illustrator 16.0.0, SVG Export Plug-In . SVG Version: 6.00 Build 0)  -->
<!DOCTYPE svg PUBLIC "-//W3C//DTD SVG 1.1//EN" "http://www.w3.org/Graphics/SVG/1.1/DTD/svg11.dtd">
<svg version="1.1" id="Layer_1" xmlns="http://www.w3.org/2000/svg" xmlns:xlink="http://www.w3.org/1999/xlink" x="0px" y="0px"
	 width="100px" height="100px" viewBox="0 0 100 100" enable-background="new 0 0 100 100" xml:space="preserve">
<path fill="none" stroke="#AD3F26" stroke-width="3" stroke-linecap="round" stroke-miterlimit="10" d="M35.758,41.416
	c2.058,2.059,5.555,6.415,5.555,6.415"/>
<path fill="none" stroke="#AD3F26" stroke-width="3" stroke-linecap="round" stroke-miterlimit="10" d="M48.589,55.553l-19.628,20.1
	c-0.941,0.931-2.213,1.453-3.555,1.453c-1.435,0-2.806-0.576-3.847-1.618s-1.617-2.401-1.617-3.847c0-1.354,0.51-2.614,1.453-3.556
	L41.509,47.97L48.589,55.553z"/>
<path fill="none" stroke="#AD3F26" stroke-width="3" stroke-linecap="round" stroke-miterlimit="10" d="M96.334,51.306
	c0.011,8.029-4.243,14.585-9.442,20.355c-7.681,8.524-16.908,14.475-25.896,21.427c-2.034,1.572-4.121,3.644-6.865,3.644
	c-1.445,0-2.814-0.575-3.848-1.618c-1.015-1.016-1.581-2.349-1.609-3.755c-0.027-1.381,0.484-2.679,1.445-3.648
	c0,0,19.234-16.21,17.298-14.53S44.316,92.344,44.316,92.344c-0.942,0.934-2.211,1.453-3.555,1.453c-3.596,0-6.371-3.68-5.196-7.001
	c0,0,7.644-8.094,11.454-11.384c4.18-3.608,13.706-11.599,12.557-10.811c-1.147,0.79-17.362,16.028-26.716,23.071
	c-2.838,2.138-6.337,3.854-9.317,0.867c-1.015-1.017-1.581-2.35-1.609-3.757c-0.038-1.379,0.484-2.68,1.443-3.648L48.819,55.73
	l0.612,0.612c1.627,1.618,3.82,2.505,6.168,2.505c2.569,0,5.138-1.088,7.048-2.979c3.766-3.785,0.887-8.539-2.623-12.048
	l-9.796-9.799c4.75-4.422,14.007-8.021,20.525-8.021c6.808,0,13.225,2.651,18.067,7.458C93.656,38.265,96.325,44.606,96.334,51.306z
	"/>
<path fill="none" stroke="#AD3F26" stroke-width="3" stroke-linecap="round" stroke-miterlimit="10" d="M22.712,81.69
	c-1.363-1.299-8.318-8.603-9.603-10.029c-5.2-5.771-9.452-12.326-9.443-20.355c0.007-6.699,2.678-13.041,7.513-17.846
	c4.843-4.808,11.259-7.458,18.066-7.458c6.518,0,15.775,3.599,20.526,8.021"/>
</svg>
