<?xml version="1.0" encoding="utf-8"?>
<!-- Generator: Adobe Illustrator 16.2.1, SVG Export Plug-In . SVG Version: 6.00 Build 0)  -->
<!DOCTYPE svg PUBLIC "-//W3C//DTD SVG 1.1//EN" "http://www.w3.org/Graphics/SVG/1.1/DTD/svg11.dtd">
<svg version="1.1" id="Layer_1" xmlns="http://www.w3.org/2000/svg" xmlns:xlink="http://www.w3.org/1999/xlink" x="0px" y="0px"
	 width="462.833px" height="87.5px" viewBox="0 0 462.833 87.5" enable-background="new 0 0 462.833 87.5" xml:space="preserve">
<g id="Layer_2" display="none">
	<path display="inline" fill="#E0EBEA" stroke="#CA972C" stroke-width="0.5" stroke-miterlimit="10" d="M173.104-133.559
		c-3.764,9.928-14.863,14.924-24.789,11.158c-3.61-1.369-6.557-3.715-8.678-6.615c0.317,8.949,5.892,17.266,14.788,20.643
		c11.843,4.492,25.087-1.469,29.578-13.311c2.22-5.857,1.881-12.056-0.459-17.369c-2.745,2.709-6.357,4.378-10.191,4.725
		C173.267-134.072,173.201-133.812,173.104-133.559z"/>
	<path display="inline" fill="#F8D073" stroke="#CA972C" stroke-width="0.75" stroke-miterlimit="10" d="M141.116-137.949
		c2.535-6.688,7.865-11.497,14.157-13.609c0.073-1.736,0.408-3.488,1.059-5.201c0.356-0.941,0.801-1.82,1.3-2.655
		c-8.643-1.142-17.249,3.722-20.473,12.229c-2.394,6.312-1.233,13.096,2.478,18.17C139.532-131.977,140.001-135.006,141.116-137.949
		z"/>
	<path display="inline" fill="#EABF5A" stroke="#CA972C" stroke-width="0.5" stroke-miterlimit="10" d="M148.315-122.4
		c9.926,3.766,21.025-1.23,24.789-11.158c0.097-0.254,0.163-0.514,0.249-0.77c-2.429,0.219-4.941-0.076-7.375-0.998
		c-6.869-2.606-10.996-9.275-10.705-16.232c-6.292,2.112-11.622,6.922-14.157,13.609c-1.115,2.943-1.584,5.973-1.479,8.934
		C141.758-126.115,144.705-123.77,148.315-122.4z"/>
	<path display="inline" fill="#F6DA5B" stroke="#CA972C" stroke-miterlimit="10" d="M187.413-144.977
		c3.256-8.586-1.064-18.18-9.649-21.436c-7.645-2.901-16.077,0.219-20.132,6.997c1.446,0.191,2.892,0.531,4.315,1.071
		c3.863,1.465,6.965,4.049,9.109,7.234c5.8,2.313,10.147,6.739,12.488,12.057C185.194-140.681,186.538-142.668,187.413-144.977z"/>
	<path display="inline" fill="#DCD480" stroke="#CA972C" stroke-width="0.5" stroke-miterlimit="10" d="M171.056-151.109
		c3.223,4.787,4.236,10.941,2.297,16.781c3.834-0.347,7.446-2.016,10.191-4.725C181.203-144.37,176.856-148.796,171.056-151.109z"/>
	<path display="inline" fill="#F3C026" stroke="#CA972C" stroke-width="0.5" stroke-miterlimit="10" d="M155.273-151.559
		c4.846-1.627,10.263-1.654,15.416,0.299c0.125,0.047,0.244,0.101,0.367,0.15c-2.144-3.186-5.246-5.77-9.109-7.234
		c-1.423-0.54-2.869-0.88-4.315-1.071c-0.499,0.835-0.943,1.714-1.3,2.655C155.681-155.047,155.346-153.295,155.273-151.559z"/>
	<path display="inline" fill="#E6AC23" stroke="#CA972C" stroke-width="0.5" stroke-miterlimit="10" d="M155.273-151.559
		c-0.291,6.957,3.836,13.626,10.705,16.232c2.434,0.922,4.946,1.217,7.375,0.998c1.939-5.84,0.926-11.994-2.297-16.781
		c-0.123-0.05-0.243-0.104-0.367-0.15C165.536-153.213,160.119-153.186,155.273-151.559z"/>
</g>
<g id="Layer_1_1_">
</g>
<g>
	<g>
		<path fill="#4E5B5C" d="M17.576,36.363h-5.12v-1.156c0-2.361-1.006-4.317-3.619-4.317c-2.811,0-3.463,2.259-3.463,4.618
			c0,2.762,0.252,3.717,2.912,4.77l3.917,1.558c4.518,1.707,5.374,4.568,5.374,9.791c0,6.025-2.21,10.492-8.838,10.492
			C3.766,62.118,0,58.455,0,53.634v-1.909h5.123v1.608c0,1.854,1.003,3.665,3.615,3.665c3.465,0,3.718-2.059,3.718-5.32
			c0-3.818-0.454-4.419-2.963-5.424l-3.665-1.509c-4.42-1.805-5.574-4.72-5.574-9.186c0-5.423,2.912-9.79,8.788-9.79
			c5.12,0,8.535,4.114,8.535,8.08L17.576,36.363L17.576,36.363z"/>
		<path fill="#4E5B5C" d="M37.959,53.785c0,4.67-3.715,8.333-8.287,8.333c-4.568,0-8.285-3.663-8.285-8.333V26.067h5.123v27.215
			c0,2.511,1.357,3.716,3.162,3.716c1.81,0,3.165-1.205,3.165-3.716V26.067h5.122V53.785L37.959,53.785z"/>
		<path fill="#4E5B5C" d="M42.576,26.067h4.92l7.733,21.541h0.103V26.067h5.12v35.751h-4.82l-7.834-21.489h-0.099v21.489h-5.122
			L42.576,26.067L42.576,26.067z"/>
		<path fill="#4E5B5C" d="M65.07,26.067h5.12v30.628h10.142v5.123H65.07V26.067z"/>
		<path fill="#4E5B5C" d="M83.796,26.067h5.123v35.751h-5.123V26.067z"/>
		<path fill="#4E5B5C" d="M93.585,34.504c0-5.826,4.418-8.734,8.588-8.734c4.166,0,8.584,2.908,8.584,8.734v1.807h-5.12v-1.807
			c0-2.461-1.607-3.614-3.464-3.614c-1.859,0-3.469,1.153-3.469,3.614v18.878c0,2.461,1.609,3.616,3.469,3.616
			c1.856,0,3.464-1.155,3.464-3.616v-6.728h-4.065v-4.521h9.186V53.38c0,5.826-4.418,8.736-8.584,8.736
			c-4.17,0-8.588-2.91-8.588-8.736L93.585,34.504L93.585,34.504z"/>
		<path fill="#4E5B5C" d="M115.276,26.067h5.119v15.314h6.328V26.067h5.118v35.751h-5.118V45.902h-6.328v15.916h-5.119V26.067z"/>
		<path fill="#4E5B5C" d="M140.027,30.89h-5.924v-4.822h16.966v4.822h-5.919v30.93h-5.123V30.89z"/>
	</g>
	<g>
		<path fill="#939D9E" d="M255.188,41.676h9.633v3.5h-9.633v16.736h-4.09V26.018h15.875v3.495h-11.785V41.676z"/>
		<path fill="#939D9E" d="M289.474,43.722c0,5.918-0.914,10.977-3.175,14.742c-2.53,4.095-6.19,4.095-7.43,4.095
			c-7.156,0-10.652-5.812-10.652-18.352c0-8.72,1.883-18.837,10.601-18.837C286.997,25.37,289.474,33.552,289.474,43.722z
			 M272.467,43.399c0,12.158,2.475,15.662,6.351,15.662c4.788,0,6.351-5.601,6.351-15.07c0-10.008-1.726-15.119-6.351-15.119
			C274.513,28.87,272.467,33.495,272.467,43.399z"/>
		<path fill="#939D9E" d="M298.573,26.018v25.023c0,4.357,0.109,8.02,4.951,8.02c3.982,0,5.271-2.158,5.271-7.804V26.018h3.931
			v25.023c0,3.872,0,11.518-9.257,11.518c-8.881,0-8.986-6.139-8.986-11.466V26.018H298.573z"/>
		<path fill="#939D9E" d="M318.975,26.018h4.898l11.353,28.091l-0.214-28.091h3.658v35.895h-3.982L322.42,31.181l0.213,30.731
			h-3.658V26.018L318.975,26.018z"/>
		<path fill="#939D9E" d="M345.565,26.018h5.922c4.088,0,6.78,0.588,9.146,2.688c3.123,2.64,4.953,8.883,4.953,14.961
			c0,6.674-2.207,12.593-4.791,15.229c-2.854,3.018-7.154,3.018-8.719,3.018h-6.513L345.565,26.018L345.565,26.018z M349.655,58.412
			h2.799c4.146,0,5.756-2.316,6.135-2.854c1.455-2.148,2.691-5.974,2.691-11.677c0-5.22-0.863-7.912-1.615-9.686
			c-1.722-3.931-4.787-4.685-7.479-4.685h-2.526v28.9L349.655,58.412L349.655,58.412z"/>
		<path fill="#939D9E" d="M378.993,26.018l8.072,35.895h-4.201l-2.256-10.386h-8.023l-2.203,10.386h-3.877l8.236-35.895H378.993z
			 M379.961,48.188l-3.283-17.919l-3.391,17.919H379.961z"/>
		<path fill="#939D9E" d="M391.963,29.513h-6.94v-3.495h17.976v3.495h-6.941v32.399h-4.094V29.513L391.963,29.513z"/>
		<path fill="#939D9E" d="M406.176,26.018h4.092v35.895h-4.092V26.018z"/>
		<path fill="#939D9E" d="M437.176,43.722c0,5.918-0.914,10.977-3.176,14.742c-2.529,4.095-6.188,4.095-7.426,4.095
			c-7.156,0-10.656-5.812-10.656-18.352c0-8.72,1.883-18.837,10.605-18.837C434.702,25.37,437.176,33.552,437.176,43.722z
			 M420.17,43.399c0,12.158,2.477,15.662,6.354,15.662c4.789,0,6.348-5.601,6.348-15.07c0-10.008-1.721-15.119-6.348-15.119
			C422.215,28.87,420.17,33.495,420.17,43.399z"/>
		<path fill="#939D9E" d="M442.834,26.018h4.896l11.355,28.091l-0.219-28.091h3.658v35.895h-3.98l-12.27-30.731l0.217,30.731h-3.658
			V26.018z"/>
	</g>
</g>
<g>
	<path fill="none" d="M221.482,3.426c-2.669-1.014-5.454-1.526-8.28-1.526c-8.342,0-16.029,4.541-20.167,11.606
		c2.202,0.263,4.371,0.772,6.473,1.569c5.042,1.912,9.184,5.169,12.186,9.206c0.476,0.155,0.949,0.32,1.418,0.498
		c7.99,3.031,14.025,8.994,17.356,16.201c1.947-2.132,3.519-4.635,4.575-7.424C239.614,21.511,233.528,7.993,221.482,3.426z"/>
	<path fill="#E8ECEE" d="M230.176,42.557c-3.885,3.801-8.993,6.267-14.512,6.84c-0.1,0.295-0.198,0.59-0.309,0.883
		c-3.997,10.543-14.256,17.627-25.53,17.627c-3.303,0-6.561-0.6-9.676-1.782c-2.895-1.098-5.488-2.643-7.746-4.519
		c2.366,9.334,9.083,17.415,18.748,21.082c3.485,1.322,7.126,1.992,10.82,1.992c12.6,0,24.068-7.919,28.538-19.703
		C233.364,57.445,233.024,49.477,230.176,42.557z"/>
	<path fill="#E3D569" d="M215.965,48.459c5.285-0.641,10.155-3.084,13.834-6.795c-3.205-7.139-9.13-13.057-17.006-16.044
		c-0.071-0.027-0.143-0.049-0.213-0.075C216.918,32.119,218.37,40.475,215.965,48.459z"/>
	<path fill="#FCD942" enable-background="new    " d="M172.6,43.015c2.974-7.842,8.968-14.003,16.335-17.392
		c-0.042-3.017,0.479-6.044,1.581-8.95c0.314-0.829,0.686-1.623,1.083-2.401c-0.589-0.04-1.178-0.081-1.77-0.081
		c-10.898,0-20.818,6.852-24.684,17.049c-3.755,9.907-1.133,20.688,5.817,27.816C170.125,53.824,170.592,48.314,172.6,43.015z"/>
	<path fill="#F7C41E" enable-background="new    " d="M189.851,25.214c3.781-1.596,7.892-2.481,12.135-2.481
		c2.784,0,5.537,0.373,8.221,1.105c-2.827-3.449-6.558-6.23-11.018-7.922c-2.147-0.815-4.365-1.331-6.617-1.567
		c-0.452,0.852-0.868,1.728-1.214,2.644C190.344,19.663,189.859,22.441,189.851,25.214z"/>
	<path fill="#E5C93F" d="M180.468,65.285c3.014,1.143,6.161,1.723,9.356,1.723c10.902,0,20.825-6.851,24.69-17.049
		c0.06-0.158,0.11-0.318,0.167-0.477c-0.492,0.03-0.985,0.058-1.483,0.058c-2.938,0-5.831-0.534-8.602-1.584
		c-6.059-2.298-10.859-6.817-13.52-12.726c-1.248-2.771-1.946-5.693-2.107-8.639c-7.002,3.324-12.685,9.245-15.528,16.743
		c-2.106,5.557-2.47,11.351-1.375,16.788C174.451,62.298,177.271,64.073,180.468,65.285z"/>
	<path fill="#E1B51D" d="M201.986,23.633c-4.251,0-8.364,0.918-12.132,2.564c0.117,2.953,0.793,5.887,2.043,8.664
		c2.561,5.69,7.185,10.044,13.02,12.257c2.668,1.014,5.454,1.524,8.281,1.524c0.602,0,1.201-0.023,1.795-0.07
		c2.614-8.236,0.947-16.923-3.847-23.519C208.171,24.113,205.099,23.633,201.986,23.633z"/>
	<g>
		<path fill="none" d="M189.824,67.008c10.902,0,20.825-6.851,24.69-17.049c0.06-0.158,0.11-0.318,0.167-0.477
			c-0.492,0.03-0.985,0.058-1.483,0.058c-2.938,0-5.831-0.534-8.602-1.584c-6.059-2.298-10.859-6.817-13.52-12.726
			c-1.248-2.771-1.946-5.693-2.107-8.639c-7.002,3.324-12.685,9.245-15.528,16.743c-2.106,5.557-2.47,11.351-1.375,16.788
			c2.385,2.176,5.205,3.951,8.402,5.163C183.482,66.428,186.629,67.008,189.824,67.008z"/>
		<path fill="none" d="M188.935,25.623c-0.042-3.017,0.479-6.044,1.581-8.95c0.314-0.829,0.686-1.623,1.083-2.401
			c-0.589-0.04-1.178-0.081-1.77-0.081c-10.898,0-20.818,6.852-24.684,17.049c-3.755,9.907-1.133,20.688,5.817,27.816
			c-0.836-5.232-0.37-10.742,1.638-16.042C175.574,35.173,181.568,29.012,188.935,25.623z"/>
		<path fill="none" d="M215.664,49.396c-0.1,0.295-0.198,0.59-0.309,0.883c-3.997,10.543-14.256,17.627-25.53,17.627
			c-3.303,0-6.561-0.6-9.676-1.782c-2.895-1.098-5.488-2.643-7.746-4.519c2.366,9.334,9.083,17.415,18.748,21.082
			c3.485,1.322,7.126,1.992,10.82,1.992c12.6,0,24.068-7.919,28.538-19.703c2.855-7.531,2.515-15.5-0.333-22.42
			C226.291,46.357,221.183,48.823,215.664,49.396z"/>
		<path fill="#FAE671" enable-background="new    " d="M221.482,3.426c-2.669-1.014-5.454-1.526-8.28-1.526
			c-8.342,0-16.029,4.541-20.167,11.606c2.202,0.263,4.371,0.772,6.473,1.569c5.042,1.912,9.184,5.169,12.186,9.206
			c0.476,0.155,0.949,0.32,1.418,0.498c7.99,3.031,14.025,8.994,17.356,16.201c1.947-2.132,3.519-4.635,4.575-7.424
			C239.614,21.511,233.528,7.993,221.482,3.426z"/>
		<path fill="#D2B246" d="M221.8,2.583C219.03,1.533,216.138,1,213.202,1c-8.798,0-16.899,4.86-21.147,12.394
			c-0.739-0.061-1.481-0.102-2.227-0.102c-11.269,0-21.527,7.086-25.524,17.631c-4.046,10.672-0.933,22.327,6.942,29.666
			c2.138,10.127,9.213,19.002,19.586,22.938c3.588,1.363,7.336,2.052,11.139,2.052c12.971,0,24.778-8.149,29.378-20.284
			c2.987-7.879,2.576-16.224-0.49-23.427c2.148-2.275,3.879-4.972,5.026-7.996C240.627,21.364,234.31,7.328,221.8,2.583z
			 M214.994,48.572c-0.594,0.047-1.193,0.07-1.795,0.07c-2.827,0-5.613-0.511-8.281-1.524c-5.835-2.213-10.459-6.567-13.02-12.257
			c-1.25-2.777-1.926-5.711-2.043-8.664c3.768-1.646,7.881-2.564,12.132-2.564c3.113,0,6.185,0.48,9.161,1.421
			C215.94,31.649,217.607,40.336,214.994,48.572z M212.58,25.544c0.071,0.026,0.143,0.048,0.213,0.075
			c7.876,2.988,13.801,8.905,17.006,16.044c-3.68,3.711-8.549,6.155-13.834,6.795C218.37,40.475,216.918,32.119,212.58,25.544z
			 M201.986,22.733c-4.243,0-8.354,0.885-12.135,2.481c0.008-2.773,0.493-5.551,1.507-8.222c0.347-0.916,0.762-1.792,1.214-2.644
			c2.252,0.237,4.469,0.752,6.617,1.567c4.46,1.691,8.19,4.473,11.018,7.922C207.523,23.106,204.77,22.733,201.986,22.733z
			 M230.468,40.979c-3.332-7.207-9.366-13.169-17.356-16.201c-0.47-0.178-0.943-0.343-1.418-0.498
			c-3.002-4.036-7.144-7.294-12.186-9.206c-2.103-0.797-4.271-1.307-6.473-1.569C197.173,6.44,204.86,1.9,213.202,1.9
			c2.826,0,5.611,0.512,8.28,1.526c12.046,4.567,18.132,18.085,13.562,30.129C233.987,36.344,232.416,38.848,230.468,40.979z
			 M170.962,59.057c-6.95-7.128-9.572-17.909-5.817-27.816c3.866-10.197,13.786-17.049,24.684-17.049
			c0.592,0,1.181,0.041,1.77,0.081c-0.397,0.778-0.769,1.573-1.083,2.401c-1.102,2.906-1.624,5.934-1.581,8.95
			c-7.367,3.389-13.361,9.55-16.335,17.392C170.592,48.314,170.125,53.824,170.962,59.057z M173.441,43.334
			c2.843-7.499,8.526-13.419,15.528-16.743c0.161,2.946,0.859,5.868,2.107,8.639c2.661,5.909,7.461,10.428,13.52,12.726
			c2.771,1.05,5.664,1.584,8.602,1.584c0.498,0,0.991-0.027,1.483-0.058c-0.057,0.158-0.107,0.318-0.167,0.477
			c-3.865,10.198-13.788,17.049-24.69,17.049c-3.195,0-6.342-0.58-9.356-1.723c-3.197-1.212-6.017-2.987-8.402-5.163
			C170.971,54.685,171.335,48.891,173.441,43.334z M230.509,64.977c-4.47,11.784-15.938,19.703-28.538,19.703
			c-3.694,0-7.335-0.67-10.82-1.992c-9.664-3.667-16.381-11.748-18.748-21.082c2.257,1.876,4.851,3.421,7.746,4.519
			c3.115,1.183,6.373,1.782,9.676,1.782c11.274,0,21.533-7.084,25.53-17.627c0.111-0.293,0.209-0.588,0.309-0.883
			c5.519-0.573,10.626-3.039,14.512-6.84C233.024,49.477,233.364,57.445,230.509,64.977z"/>
	</g>
</g>
</svg>
