<?xml version="1.0" encoding="utf-8"?>
<!-- Generator: Adobe Illustrator 16.2.1, SVG Export Plug-In . SVG Version: 6.00 Build 0)  -->
<!DOCTYPE svg PUBLIC "-//W3C//DTD SVG 1.1//EN" "http://www.w3.org/Graphics/SVG/1.1/DTD/svg11.dtd">
<svg version="1.1" xmlns="http://www.w3.org/2000/svg" xmlns:xlink="http://www.w3.org/1999/xlink" x="0px" y="0px" width="520px"
	 height="146px" viewBox="0 0 520 146" enable-background="new 0 0 520 146" xml:space="preserve">
<g id="Layer_2" display="none">
	<path display="inline" fill="#E0EBEA" stroke="#CA972C" stroke-width="0.5" stroke-miterlimit="10" d="M173.104-133.559
		c-3.764,9.928-14.863,14.924-24.789,11.158c-3.61-1.369-6.557-3.715-8.678-6.615c0.317,8.949,5.892,17.266,14.788,20.643
		c11.843,4.492,25.087-1.469,29.578-13.311c2.22-5.857,1.881-12.056-0.459-17.369c-2.745,2.709-6.357,4.378-10.191,4.725
		C173.267-134.072,173.201-133.812,173.104-133.559z"/>
	<path display="inline" fill="#F8D073" stroke="#CA972C" stroke-width="0.75" stroke-miterlimit="10" d="M141.116-137.949
		c2.535-6.688,7.865-11.497,14.157-13.609c0.073-1.736,0.408-3.488,1.059-5.201c0.356-0.941,0.801-1.82,1.3-2.655
		c-8.643-1.142-17.249,3.722-20.473,12.229c-2.394,6.312-1.233,13.096,2.478,18.17C139.532-131.977,140.001-135.006,141.116-137.949
		z"/>
	<path display="inline" fill="#EABF5A" stroke="#CA972C" stroke-width="0.5" stroke-miterlimit="10" d="M148.315-122.4
		c9.926,3.766,21.025-1.23,24.789-11.158c0.097-0.254,0.163-0.514,0.249-0.77c-2.429,0.219-4.941-0.076-7.375-0.998
		c-6.869-2.606-10.996-9.275-10.705-16.232c-6.292,2.112-11.622,6.922-14.157,13.609c-1.115,2.943-1.584,5.973-1.479,8.934
		C141.758-126.115,144.705-123.77,148.315-122.4z"/>
	<path display="inline" fill="#F6DA5B" stroke="#CA972C" stroke-miterlimit="10" d="M187.413-144.977
		c3.256-8.586-1.064-18.18-9.649-21.436c-7.645-2.901-16.077,0.219-20.132,6.997c1.446,0.191,2.892,0.531,4.315,1.071
		c3.863,1.465,6.965,4.049,9.109,7.234c5.8,2.313,10.147,6.739,12.488,12.057C185.194-140.681,186.538-142.668,187.413-144.977z"/>
	<path display="inline" fill="#DCD480" stroke="#CA972C" stroke-width="0.5" stroke-miterlimit="10" d="M171.056-151.109
		c3.223,4.787,4.236,10.941,2.297,16.781c3.834-0.347,7.446-2.016,10.191-4.725C181.203-144.37,176.856-148.796,171.056-151.109z"/>
	<path display="inline" fill="#F3C026" stroke="#CA972C" stroke-width="0.5" stroke-miterlimit="10" d="M155.273-151.559
		c4.846-1.627,10.263-1.654,15.416,0.299c0.125,0.047,0.244,0.101,0.367,0.15c-2.144-3.186-5.246-5.77-9.109-7.234
		c-1.423-0.54-2.869-0.88-4.315-1.071c-0.499,0.835-0.943,1.714-1.3,2.655C155.681-155.047,155.346-153.295,155.273-151.559z"/>
	<path display="inline" fill="#E6AC23" stroke="#CA972C" stroke-width="0.5" stroke-miterlimit="10" d="M155.273-151.559
		c-0.291,6.957,3.836,13.626,10.705,16.232c2.434,0.922,4.946,1.217,7.375,0.998c1.939-5.84,0.926-11.994-2.297-16.781
		c-0.123-0.05-0.243-0.104-0.367-0.15C165.536-153.213,160.119-153.186,155.273-151.559z"/>
</g>
<g id="Layer_1">
</g>
<g id="Layer_3">
	<g>
		<g>
			<path fill="#4D5B5B" d="M46.517,69.099h-5.12v-1.156c0-2.361-1.006-4.317-3.619-4.317c-2.811,0-3.463,2.259-3.463,4.618
				c0,2.762,0.252,3.717,2.912,4.77l3.917,1.558c4.518,1.707,5.374,4.568,5.374,9.791c0,6.025-2.21,10.492-8.838,10.492
				c-4.972,0-8.737-3.663-8.737-8.484V84.46h5.123v1.608c0,1.855,1.003,3.665,3.615,3.665c3.465,0,3.718-2.059,3.718-5.32
				c0-3.819-0.454-4.419-2.963-5.424l-3.665-1.509c-4.42-1.805-5.574-4.72-5.574-9.186c0-5.423,2.912-9.79,8.788-9.79
				c5.12,0,8.535,4.114,8.535,8.08V69.099z"/>
			<path fill="#4D5B5B" d="M66.9,86.521c0,4.67-3.715,8.333-8.287,8.333c-4.568,0-8.285-3.663-8.285-8.333V58.803h5.123v27.215
				c0,2.511,1.357,3.716,3.162,3.716c1.81,0,3.165-1.205,3.165-3.716V58.803H66.9V86.521z"/>
			<path fill="#4D5B5B" d="M71.518,58.803h4.92l7.733,21.54h0.103v-21.54h5.12v35.752h-4.82l-7.834-21.49h-0.099v21.49h-5.122
				V58.803z"/>
			<path fill="#4D5B5B" d="M94.012,58.803h5.12v30.629h10.142v5.123H94.012V58.803z"/>
			<path fill="#4D5B5B" d="M112.737,58.803h5.123v35.752h-5.123V58.803z"/>
			<path fill="#4D5B5B" d="M122.526,67.239c0-5.826,4.418-8.734,8.589-8.734c4.165,0,8.583,2.908,8.583,8.734v1.807h-5.12v-1.807
				c0-2.461-1.607-3.614-3.463-3.614c-1.859,0-3.469,1.153-3.469,3.614v18.878c0,2.461,1.609,3.616,3.469,3.616
				c1.856,0,3.463-1.155,3.463-3.616V79.39h-4.065v-4.519h9.186v11.246c0,5.826-4.418,8.736-8.583,8.736
				c-4.17,0-8.589-2.91-8.589-8.736V67.239z"/>
			<path fill="#4D5B5B" d="M144.217,58.803h5.12v15.314h6.327V58.803h5.119v35.752h-5.119V78.638h-6.327v15.917h-5.12V58.803z"/>
			<path fill="#4D5B5B" d="M168.969,63.625h-5.924v-4.822h16.966v4.822h-5.919v30.93h-5.123V63.625z"/>
		</g>
		<g>
			<path fill="#949E9F" d="M284.129,74.411h9.633v3.5h-9.633v16.736h-4.09V58.753h15.875v3.495h-11.785V74.411z"/>
			<path fill="#949E9F" d="M318.415,76.457c0,5.919-0.914,10.977-3.175,14.742c-2.53,4.094-6.19,4.094-7.429,4.094
				c-7.156,0-10.653-5.813-10.653-18.351c0-8.72,1.883-18.837,10.601-18.837C315.938,58.105,318.415,66.287,318.415,76.457z
				 M301.409,76.135c0,12.158,2.474,15.661,6.35,15.661c4.788,0,6.35-5.6,6.35-15.071c0-10.008-1.725-15.119-6.35-15.119
				C303.454,61.605,301.409,66.23,301.409,76.135z"/>
			<path fill="#949E9F" d="M327.515,58.753v25.023c0,4.358,0.109,8.02,4.951,8.02c3.982,0,5.272-2.158,5.272-7.804V58.753h3.93
				v25.023c0,3.872,0,11.517-9.257,11.517c-8.88,0-8.986-6.138-8.986-11.465V58.753H327.515z"/>
			<path fill="#949E9F" d="M347.916,58.753h4.899l11.352,28.092l-0.214-28.092h3.659v35.895h-3.983l-12.268-30.731l0.213,30.731
				h-3.658V58.753z"/>
			<path fill="#949E9F" d="M374.507,58.753h5.922c4.088,0,6.78,0.588,9.146,2.688c3.124,2.64,4.953,8.883,4.953,14.961
				c0,6.674-2.207,12.593-4.79,15.229c-2.853,3.018-7.155,3.018-8.719,3.018h-6.512V58.753z M378.597,91.147h2.799
				c4.145,0,5.756-2.316,6.135-2.854c1.455-2.148,2.69-5.972,2.69-11.675c0-5.22-0.862-7.912-1.615-9.686
				c-1.721-3.931-4.786-4.685-7.48-4.685h-2.528V91.147z"/>
			<path fill="#949E9F" d="M407.935,58.753l8.072,35.895h-4.202l-2.255-10.386h-8.023l-2.204,10.386h-3.876l8.235-35.895H407.935z
				 M408.902,80.922l-3.283-17.92l-3.391,17.92H408.902z"/>
			<path fill="#949E9F" d="M420.904,62.248h-6.94v-3.495h17.975v3.495h-6.941v32.399h-4.093V62.248z"/>
			<path fill="#949E9F" d="M435.117,58.753h4.093v35.895h-4.093V58.753z"/>
			<path fill="#949E9F" d="M466.117,76.457c0,5.919-0.914,10.977-3.175,14.742c-2.53,4.094-6.188,4.094-7.427,4.094
				c-7.155,0-10.655-5.813-10.655-18.351c0-8.72,1.883-18.837,10.604-18.837C463.643,58.105,466.117,66.287,466.117,76.457z
				 M449.111,76.135c0,12.158,2.477,15.661,6.353,15.661c4.789,0,6.348-5.6,6.348-15.071c0-10.008-1.721-15.119-6.348-15.119
				C451.157,61.605,449.111,66.23,449.111,76.135z"/>
			<path fill="#949E9F" d="M471.776,58.753h4.896l11.357,28.092l-0.219-28.092h3.659v35.895h-3.981l-12.272-30.731l0.218,30.731
				h-3.658V58.753z"/>
		</g>
		<g>
			<path fill="#FFFFFF" d="M251.425,34.336c-2.803-1.062-5.728-1.601-8.694-1.601c-8.892,0-17.077,4.91-21.371,12.523
				c-0.75-0.063-1.501-0.098-2.254-0.098c-11.391,0-21.761,7.161-25.802,17.82c-4.091,10.789-0.941,22.57,7.018,29.991
				c2.16,10.236,9.312,19.205,19.799,23.184c3.627,1.377,7.413,2.075,11.259,2.075c13.112,0,25.042-8.24,29.697-20.504
				c3.015-7.966,2.604-16.4-0.499-23.683c2.174-2.3,3.922-5.023,5.081-8.08C270.454,53.32,264.065,39.134,251.425,34.336z"/>
			<path opacity="0.6" fill="#F5D614" d="M219.961,48.766c4.708-12.435,18.602-18.695,31.034-13.979
				c12.431,4.715,18.686,18.607,13.972,31.042c-4.713,12.435-18.61,18.689-31.041,13.973C221.5,75.088,215.24,61.188,219.961,48.766
				z"/>
			<path opacity="0.8" fill="#FAD017" d="M193.692,63.143c5.315-14.022,20.983-21.073,35-15.754
				c14.018,5.313,21.067,20.981,15.757,34.998c-5.313,14.017-20.99,21.068-35.002,15.755
				C195.426,92.826,188.381,77.152,193.692,63.143z"/>
			<g>
				<path fill="#E7C04A" d="M219.064,100.368c-3.339,0-6.631-0.607-9.782-1.803c-14.225-5.393-21.408-21.356-16.014-35.581
					c4.04-10.661,14.406-17.823,25.8-17.823c3.342,0,6.634,0.607,9.787,1.802c14.225,5.395,21.411,21.356,16.018,35.587
					C240.831,93.206,230.463,100.368,219.064,100.368z M219.068,46.069c-11.018,0-21.045,6.927-24.953,17.233
					c-5.215,13.763,1.733,29.199,15.494,34.414c3.043,1.155,6.225,1.741,9.455,1.741c11.022,0,21.051-6.925,24.957-17.232
					c5.217-13.759-1.733-29.195-15.491-34.413C225.481,46.655,222.299,46.069,219.068,46.069z"/>
			</g>
			<g>
				<path fill="#E7C04A" d="M231.343,118.231c-3.846,0-7.634-0.698-11.259-2.074c-16.366-6.208-24.633-24.579-18.43-40.95
					c4.65-12.264,16.583-20.502,29.706-20.502c3.839,0,7.624,0.695,11.244,2.067c16.374,6.212,24.641,24.584,18.434,40.955
					C256.387,109.994,244.455,118.231,231.343,118.231z M231.359,55.613c-12.746,0-24.34,8.002-28.854,19.915
					c-6.029,15.902,2,33.747,17.901,39.78c3.522,1.338,7.204,2.016,10.937,2.016c12.736,0,24.329-8.005,28.847-19.919
					c6.029-15.904-2.005-33.751-17.908-39.783C238.761,56.288,235.087,55.613,231.359,55.613z"/>
			</g>
			<g>
				<path fill="#E7C04A" d="M242.692,81.803c-2.97,0-5.895-0.541-8.696-1.603c-6.123-2.323-10.976-6.892-13.666-12.863
					c-2.689-5.974-2.89-12.637-0.567-18.759c3.59-9.475,12.804-15.843,22.933-15.843c2.966,0,5.89,0.538,8.691,1.601
					c12.643,4.798,19.031,18.986,14.236,31.629C262.033,75.437,252.817,81.803,242.692,81.803z M242.696,33.646
					c-9.752,0-18.625,6.13-22.081,15.255c-2.241,5.898-2.043,12.312,0.544,18.063c2.59,5.752,7.262,10.153,13.161,12.39
					c2.696,1.023,5.515,1.541,8.372,1.541c9.752,0,18.625-6.128,22.08-15.251c4.619-12.176-1.531-25.841-13.709-30.457
					C248.366,34.164,245.553,33.646,242.696,33.646z"/>
			</g>
			<path fill="#E8EBED" d="M202.171,75.567c6.128-16.159,24.203-24.296,40.367-18.171c16.162,6.133,24.294,24.207,18.174,40.368
				c-6.131,16.165-24.209,24.305-40.375,18.169C204.183,109.799,196.049,91.731,202.171,75.567z"/>
		</g>
	</g>
</g>
</svg>
