<?xml version="1.0" encoding="utf-8"?>
<!-- Generator: Adobe Illustrator 16.2.1, SVG Export Plug-In . SVG Version: 6.00 Build 0)  -->
<!DOCTYPE svg PUBLIC "-//W3C//DTD SVG 1.1//EN" "http://www.w3.org/Graphics/SVG/1.1/DTD/svg11.dtd">
<svg version="1.1" id="Layer_1" xmlns="http://www.w3.org/2000/svg" xmlns:xlink="http://www.w3.org/1999/xlink" x="0px" y="0px"
	 width="553px" height="157.333px" viewBox="39.5 23.085 553 157.333" enable-background="new 39.5 23.085 553 157.333"
	 xml:space="preserve">
<g>
	<path fill="#CC6828" d="M169.537,139.532h-0.138c-2.558-3.25-5.737-5.463-10.093-5.463c-6.707,0-11.477,5.53-11.477,12.03
		c0,6.43,4.425,12.028,11.201,12.028c4.633,0,7.882-2.073,10.578-5.6h0.137v7.396c-3.179,2.144-6.43,3.318-10.3,3.318
		c-9.818,0-17.284-7.328-17.284-17.146c0-9.681,7.812-17.146,17.353-17.146c3.525,0,7.123,1.174,10.025,3.248v7.332H169.537z"/>
	<path fill="#CC6828" d="M207.982,162.346h-5.531v-4.495h-0.14c-2.833,3.597-6.636,5.394-11.199,5.394
		c-9.54,0-15.555-8.09-15.555-17.074c0-9.268,5.876-17.217,15.625-17.217c4.423,0,8.434,2.072,11.129,5.53h0.14v-4.632h5.531
		V162.346z M181.228,145.752c0,6.361,3.732,12.375,10.646,12.375c7.121,0,10.854-5.736,10.854-12.305
		c0-6.5-4.078-11.755-10.924-11.755C185.374,134.069,181.228,139.668,181.228,145.752z"/>
	<path fill="#CC6828" d="M223.751,133.377h0.138c1.729-2.695,4.493-4.424,7.812-4.424c3.803,0,7.26,2.004,8.987,5.391
		c1.936-3.594,5.809-5.391,9.749-5.391c8.296,0,10.37,6.774,10.37,13.617v19.773h-5.531v-18.875c0-4.217-0.276-9.401-5.947-9.401
		c-6.358,0-7.05,6.153-7.05,11.062v17.215h-5.531v-18.461c0-4.008-0.483-9.815-5.808-9.815c-6.5,0-7.19,6.567-7.19,11.478v16.801
		h-5.533v-32.494h5.533L223.751,133.377L223.751,133.377z"/>
	<path fill="#CC6828" d="M276.578,134.484h0.14c2.696-3.595,6.707-5.53,11.199-5.53c9.541,0,15.556,8.228,15.556,17.217
		c0,9.262-5.877,17.074-15.625,17.074c-4.423,0-8.503-1.936-11.129-5.461h-0.14v22.814h-5.53v-50.746h5.53L276.578,134.484
		L276.578,134.484z M276.301,145.752c0,6.361,3.734,12.375,10.648,12.375c7.12,0,10.854-5.736,10.854-12.305
		c0-6.5-4.08-11.755-10.924-11.755C280.449,134.069,276.301,139.668,276.301,145.752z"/>
</g>
<path fill="#AD3E25" d="M157.792,116.525h-11.867V92.854h-3.847v-9.779h3.847V73.034h11.867v10.041h6.715v9.779h-6.715V116.525z"/>
<path fill="#AD3E25" d="M180.156,88.553h0.13c2.283-4.11,6.194-5.936,10.825-5.936h2.282v11.411
	c-1.629-0.913-3.195-1.108-5.021-1.108c-6.585,0-8.215,4.369-8.215,10.107v13.497h-11.868v-33.45h11.868L180.156,88.553
	L180.156,88.553z"/>
<path fill="#AD3E25" d="M234.407,116.525H222.54v-3.716h-0.13c-2.088,3.324-6.196,4.822-10.108,4.822
	c-9.912,0-16.888-8.28-16.888-17.864c0-9.583,6.846-17.8,16.757-17.8c3.847,0,7.89,1.434,10.369,4.367v-3.26h11.867V116.525z
	 M207.671,99.833c0,4.238,2.804,7.498,7.631,7.498c4.824,0,7.629-3.26,7.629-7.498c0-4.108-2.805-7.563-7.629-7.563
	C210.475,92.269,207.671,95.724,207.671,99.833z"/>
<path fill="#AD3E25" d="M254.164,87.378h0.13c2.738-4.042,6.063-5.411,10.693-5.411c8.999,0,12.584,5.672,12.584,13.888v20.67
	h-11.867v-16.301c0-3.195,0.522-8.803-5.347-8.803c-4.824,0-6.194,3.585-6.194,7.759v17.345h-11.869v-33.45h11.869L254.164,87.378
	L254.164,87.378z"/>
<path fill="#AD3E25" d="M306.521,91.63c-1.276-0.528-2.574-0.989-3.904-1.286c-0.823-0.185-1.663-0.291-2.507-0.291
	c-1.368,0-3.717,0.586-3.717,2.281c0,2.281,3.717,2.607,5.348,2.934c5.543,1.108,9.716,3.717,9.716,9.912
	c0,8.803-8.021,12.451-15.782,12.451c-3.796,0-7.552-0.871-10.969-2.48l0.002-9.996c0,0,6.226,2.861,8.745,3.438
	c0.793,0.181,1.603,0.305,2.418,0.305c1.5,0,3.717-0.719,3.717-2.543c0-2.609-3.717-2.74-7.433-3.718
	c-3.716-0.979-7.433-2.804-7.433-8.803c0-8.216,7.433-11.866,14.736-11.866c3.783,0,7.565,0.586,11.021,2.151l0.896,0.422v9.251
	C309.775,93.098,308.166,92.309,306.521,91.63z"/>
<path fill="#AD3E25" d="M330.32,86.857h0.131c2.152-3.325,6.195-4.89,10.105-4.89c9.977,0,16.891,8.346,16.891,17.93
	c0,9.65-6.848,17.734-16.758,17.734c-3.849,0-7.825-1.367-10.369-4.301v19.887h-11.867V83.075h11.867V86.857L330.32,86.857z
	 M329.93,99.833c0,4.238,2.805,7.498,7.631,7.498c4.822,0,7.629-3.26,7.629-7.498c0-4.108-2.807-7.563-7.629-7.563
	C332.734,92.269,329.93,95.724,329.93,99.833z"/>
<path fill="#AD3E25" d="M399.895,116.525h-11.867v-3.716h-0.129c-2.088,3.324-6.195,4.822-10.107,4.822
	c-9.911,0-16.889-8.28-16.889-17.864c0-9.583,6.848-17.8,16.759-17.8c3.847,0,7.89,1.434,10.366,4.367v-3.26h11.867V116.525z
	 M373.161,99.833c0,4.238,2.803,7.498,7.629,7.498c4.825,0,7.629-3.26,7.629-7.498c0-4.108-2.804-7.563-7.629-7.563
	C375.964,92.269,373.161,95.724,373.161,99.833z"/>
<path fill="#AD3E25" d="M419.65,88.553h0.13c2.285-4.11,6.195-5.936,10.825-5.936h2.281v11.411c-1.63-0.913-3.193-1.108-5.021-1.108
	c-6.585,0-8.217,4.369-8.217,10.107v13.497h-11.867v-33.45h11.867L419.65,88.553L419.65,88.553z"/>
<path fill="#AD3E25" d="M471.685,101.788h-24.974c0,4.828,2.542,7.436,7.434,7.436c2.543,0,4.368-0.848,5.673-3.064h11.409
	c-0.912,3.91-3.259,6.781-6.324,8.672c-3.063,1.891-6.847,2.801-10.693,2.801c-11.084,0-19.364-6.258-19.364-17.799
	c0-11.149,7.628-17.865,18.518-17.865c11.605,0,18.323,7.172,18.323,18.582L471.685,101.788L471.685,101.788z M460.664,94.942
	c-0.587-3.194-3.521-5.28-6.717-5.28c-3.456,0-6.324,1.825-7.042,5.28H460.664z"/>
<path fill="#AD3E25" d="M488.962,87.378h0.13c2.74-4.042,6.064-5.411,10.695-5.411c8.996,0,12.585,5.672,12.585,13.888v20.67
	h-11.869v-16.301c0-3.195,0.521-8.803-5.347-8.803c-4.824,0-6.194,3.585-6.194,7.759v17.345h-11.867v-33.45h11.867V87.378z"/>
<path fill="#AD3E25" d="M544.321,93.963c-1.759-1.305-3.848-2.347-6.128-2.347c-4.564,0-8.15,3.521-8.15,8.15
	c0,4.825,3.455,8.216,8.346,8.216c2.086,0,4.37-0.848,5.934-2.281v10.042c-2.606,1.305-5.477,1.889-8.347,1.889
	c-9.911,0-18.19-7.366-18.19-17.473c0-10.758,8.216-18.191,18.713-18.191c2.738,0,5.479,0.65,7.824,1.955L544.321,93.963
	L544.321,93.963z"/>
<path fill="#AD3E25" d="M546.799,83.075h13.693l8.934,17.149l8.738-17.149h13.496l-26.798,50.142h-13.305l11.411-21.256
	L546.799,83.075z"/>
<g>
	<path fill="#004454" d="M97.97,92.028c0.716,0.812,4.212,0.479,4.515,0.121c0.178-0.211,0.13-0.594,0.119-0.844
		c-0.021-0.49-0.08-0.977-0.088-1.467c-0.05-3.152-0.127-4.406-0.182-4.902c-0.07-0.638-0.161-1.273-0.271-1.904
		c-0.227-1.305-0.542-2.6-0.971-3.854c-0.5-1.463-1.227-2.91-1.953-4.271c-0.309-0.581-0.646-1.239-1.289-1.503
		c-0.428-0.176-0.893,0.09-1.286,0.24c-0.323,0.124-0.731,0.238-0.856,0.605c-0.143,0.418,0.129,0.842,0.315,1.205
		c0.009,0.016,0.017,0.031,0.024,0.047c0.218,0.438,0.382,0.901,0.539,1.363c0.386,1.139,0.629,2.32,0.823,3.505
		c0.133,0.808,0.231,1.62,0.312,2.435c0.154,1.565,0.237,3.139,0.274,4.711c0.018,0.748,0.025,1.496,0.02,2.244
		c-0.002,0.366-0.012,0.726-0.061,1.089C97.91,91.184,97.736,91.763,97.97,92.028z"/>
	<path fill="#004454" d="M90.898,82.688c-0.061-0.803-0.159-1.602-0.271-2.398c-0.224-1.604-0.497-3.201-0.804-4.791
		c-0.18-0.938-0.413-1.494-0.609-2.428c-0.112-0.535-0.238-1.316-0.891-1.418c-0.604-0.093-0.941-0.049-1.498,0.096
		c-0.39,0.1-0.945,0.137-1.084,0.598c-0.068,0.23-0.061,0.475-0.035,0.716c0.013,0.136,0.031,0.271,0.044,0.401
		c0.036,0.379,0.063,0.758,0.104,1.137c0.092,0.854,0.207,1.705,0.32,2.557c0.125,0.937,0.247,1.859,0.331,2.683
		c0.111,1.089,0.181,2.182,0.226,3.275c0.086,2.005,0.075,4.015,0.029,6.021c-0.02,0.821-0.013,1.644-0.044,2.465
		c-0.015,0.373-0.081,0.736-0.106,1.109c-0.053,0.787-0.145,1.221,0.4,1.427c0.723,0.272,3.068,0.315,3.75,0.079
		c0.417-0.145,0.366-0.826,0.389-1.102c0.049-0.604,0.02-1.186,0.022-1.88C91.18,89.346,91.19,86.494,90.898,82.688z"/>
	<path fill="#004454" d="M67.426,82.803c0.081-0.813,0.18-1.627,0.312-2.435c0.195-1.185,0.438-2.366,0.824-3.505
		c0.156-0.462,0.32-0.926,0.539-1.363c0.008-0.016,0.016-0.031,0.023-0.047c0.188-0.363,0.458-0.787,0.316-1.205
		c-0.125-0.367-0.533-0.481-0.857-0.605c-0.393-0.15-0.857-0.416-1.285-0.24c-0.643,0.264-0.98,0.922-1.29,1.503
		c-0.726,1.362-1.453,2.81-1.953,4.271c-0.429,1.254-0.744,2.549-0.971,3.854c-0.11,0.631-0.2,1.267-0.271,1.904
		c-0.056,0.496-0.133,1.75-0.183,4.902c-0.008,0.49-0.065,0.977-0.087,1.467c-0.012,0.25-0.059,0.633,0.119,0.844
		c0.303,0.358,3.799,0.69,4.514-0.121c0.234-0.265,0.061-0.844,0.016-1.181c-0.049-0.363-0.059-0.723-0.061-1.089
		c-0.006-0.748,0.001-1.496,0.019-2.244C67.189,85.942,67.271,84.369,67.426,82.803z"/>
	<path fill="#004454" d="M73.998,93.114c0.021,0.275-0.029,0.957,0.389,1.102c0.681,0.236,3.027,0.193,3.75-0.079
		c0.545-0.206,0.453-0.64,0.4-1.427c-0.025-0.373-0.093-0.736-0.107-1.109c-0.031-0.821-0.023-1.644-0.043-2.465
		c-0.047-2.006-0.057-4.016,0.028-6.021c0.046-1.094,0.114-2.188,0.226-3.275c0.084-0.823,0.207-1.746,0.332-2.683
		c0.113-0.852,0.229-1.702,0.319-2.557c0.041-0.379,0.069-0.758,0.104-1.137c0.014-0.131,0.031-0.266,0.045-0.401
		c0.024-0.241,0.033-0.485-0.035-0.716c-0.139-0.461-0.695-0.498-1.084-0.598c-0.557-0.145-0.895-0.188-1.498-0.096
		c-0.652,0.102-0.779,0.883-0.891,1.418c-0.197,0.934-0.43,1.489-0.61,2.428c-0.306,1.59-0.579,3.188-0.804,4.791
		c-0.111,0.797-0.209,1.596-0.271,2.398c-0.292,3.806-0.281,6.658-0.274,8.546C73.979,91.928,73.949,92.509,73.998,93.114z"/>
	<path fill="#004454" d="M120.885,109.319h-3.155V91.531c0-19.189-8.252-30.499-24.551-33.757c0-1.394,0-5.924,0-8.12
		c0-1-0.343-1.844-1.713-1.851c-0.714-0.003-1.754,0.047-2.599-0.024c-0.761-0.064-1.219,0.12-1.219-1.969
		c0-1.778-0.157-5.104-0.156-4.965c0.022-1.256,1.603-2.618,1.821-3.831c0.072-0.388,0.076-0.785,0.003-1.172
		c-0.13-0.697-0.469-1.333-1.013-1.903c-1.146-1.205-1.899-1.491-2.749-3.004c-0.771-1.37-0.673-3.422-0.673-5.015
		c0-2.417,0.287-2.432-2.515-2.432c-0.008,0-0.015,0-0.023,0c-0.008,0-0.015,0-0.023,0c-2.801,0-2.515,0.014-2.515,2.432
		c0,1.593,0.099,3.645-0.673,5.015c-0.85,1.513-1.603,1.8-2.749,3.004c-0.544,0.57-0.883,1.206-1.013,1.903
		c-0.073,0.388-0.069,0.784,0.003,1.172c0.219,1.212,1.799,2.575,1.821,3.831c0.001-0.139-0.156,3.188-0.156,4.965
		c0,2.089-0.458,1.904-1.219,1.969c-0.845,0.071-1.885,0.021-2.599,0.024c-1.37,0.007-1.713,0.851-1.713,1.851
		c0,2.196,0,6.726,0,8.12C55.21,61.032,46.958,72.341,46.958,91.531c0,2.485,2.015,2,4.5,2s4.5,0.485,4.5-2
		c0-18.05,7.891-25.752,26.386-25.752c18.495,0,26.386,7.702,26.386,25.752v17.788H43.803c-2.209,0-4,1.791-4,4v44.752
		c0,2.209,1.791,4,4,4h77.082c2.209,0,4-1.791,4-4v-44.752C124.885,111.11,123.094,109.319,120.885,109.319z M89.759,150.051
		c-0.486,0-14.352,0-14.838,0c-0.625,0-0.828-0.285-0.688-0.895c0.24-1.044,3.178-13.509,3.178-13.509
		c-1.871-1.465-3.078-3.739-3.078-6.304c0-4.422,3.586-8.008,8.009-8.008c4.423,0,8.009,3.586,8.009,8.008
		c0,2.562-1.207,4.839-3.078,6.304c0,0,3.033,12.894,3.176,13.509C90.619,149.891,90.322,150.051,89.759,150.051z"/>
</g>
</svg>
