<?xml version="1.0" encoding="utf-8"?>
<!-- Generator: Adobe Illustrator 16.0.0, SVG Export Plug-In . SVG Version: 6.00 Build 0)  -->
<!DOCTYPE svg PUBLIC "-//W3C//DTD SVG 1.1//EN" "http://www.w3.org/Graphics/SVG/1.1/DTD/svg11.dtd">
<svg version="1.1" id="Layer_1" xmlns="http://www.w3.org/2000/svg" xmlns:xlink="http://www.w3.org/1999/xlink" x="0px" y="0px"
	 width="100px" height="100px" viewBox="0 0 100 100" enable-background="new 0 0 100 100" xml:space="preserve">
<path fill="none" stroke="#AD3F26" stroke-width="3" stroke-linecap="round" stroke-miterlimit="10" d="M36.131,36.354
	c-0.445-2.853-2.453-6.083-5.779-6.045c-2.044,0.023-4.249,1.663-4.249,3.707v27.952c0,7.423,3.244,14.099,8.381,18.687
	c0.065,0.084,0.14,0.166,0.222,0.238c0.254,0.221,0.512,0.436,0.773,0.645l-0.002,14.769"/>
<path fill="none" stroke="#AD3F26" stroke-width="3" stroke-linecap="round" stroke-miterlimit="10" d="M63.563,80.804
	l-0.002,15.502"/>
<path fill="none" stroke="#AD3F26" stroke-width="3" stroke-linecap="round" stroke-miterlimit="10" d="M47.686,66.768
	c0-8.155-3.345-16.174-11.368-16.965V12.742c0-1.721,2.281-3.12,4-3.12c1.722,0,4.534,1.399,4.534,3.12
	c0,0.108-0.006,0.219-0.023,0.374l-0.003,27.931c0,0.857,0.058,0.86,0.058,0V8.36l-0.005-0.087
	c-0.004-0.072-0.008-0.146-0.008-0.219c0-1.719,3.13-3.118,4.851-3.118s4.505,1.399,4.505,3.118c0,0.076-0.006,0.152-0.011,0.238
	l-0.004,0.034l0.002,4.012c-0.008,0.134-0.014,0.269-0.014,0.405c0,0.125,0.006,0.255,0.012,0.355v27.949
	c0,0.866,0.001,0.866,0.001,0V12.472c0.138-1.601,3.233-2.851,4.843-2.851c1.719,0,4.52,1.399,4.52,3.12
	c0,0.074-0.005,0.147-0.012,0.237l-0.002,30.687c0,0.847-0.01,1.178-0.01,0.334l-0.001-21.163l-0.003-0.073
	c-0.007-0.074-0.011-0.148-0.011-0.225c0-1.72,3.134-3.451,4.853-3.451c1.72,0,4.559,1.399,4.559,3.12
	c0,0.075-0.003,0.15-0.011,0.237v39.523c0,6.212-2.601,11.819-6.759,15.81c-0.124,0.063-9.556,9.577-9.931,9.389"/>
<path fill="none" stroke="#AD3F26" stroke-width="3" stroke-linecap="round" stroke-miterlimit="10" d="M43.676,87.009
	c-0.48-0.175-6.511-4.216-8.481-5.646"/>
</svg>
